<svg version="1.2" xmlns="http://www.w3.org/2000/svg" viewBox="0 0 882 385" width="882" height="385">
	<style>
		.s0 { fill: #00d796 } 
		.s1 { fill: #009966 } 
		.s2 { fill: #414042 } 
	</style>
	<g id="_01">
		<g>
			<path class="s0" d="m70.26 53.79c8.23-37.87 27.44-53.79 65.32-53.79h92.21c-4.94 27.44-24.15 42.26-47.2 42.26h-31.29l-26.71 126.35-34.21 161.82c-8.23 37.87-27.44 53.79-65.32 53.79h-23.06z"/>
			<path class="s1" d="m110.66 225.3l-13.52 63.8-82.45-77.33c-1.22-1.12-2.2-2.44-2.92-3.86-1.04-2.02-1.59-4.27-1.6-6.55v-0.03q0.03-1.37 0.29-2.72l10.01-49.9c0.19-0.93 0.61-1.74 1.2-2.4 0.67-0.76 1.58-1.32 2.59-1.57l57.39 53.52 3.17 2.96c0 0 25.83 24.08 25.84 24.08z"/>
			<path class="s0" d="m144.34 219.01l4.87-24.31-64.38 6.53-3.84 0.38-66.76 6.78c-0.9 0.09-1.75-0.09-2.45-0.48-1.06-2.02-1.6-4.27-1.61-6.54v-0.03q0.01-1.39 0.3-2.72l10-49.9q0.29-1.41 1.21-2.41c0.66-0.76 1.57-1.33 2.59-1.56q0.32-0.1 0.7-0.13l137.05-13.9 5.06-25.29 45.43 68.16-68.16 45.43z"/>
		</g>
		<g>
			<path class="s2" d="m142.33 383.26h-30.33l34.17-103.53h38.42l34.16 103.53h-30.32l-22.64-75.02h-0.81zm-5.67-40.84h57.02v21.03h-57.02z"/>
			<path class="s2" d="m280.42 312.08q-0.4-5.05-3.76-7.88-3.36-2.84-10.18-2.84-4.35 0.01-7.11 1.05-2.75 1.04-4.07 2.8-1.32 1.77-1.36 4.04-0.1 1.87 0.68 3.36 0.79 1.49 2.5 2.68 1.72 1.19 4.41 2.15 2.68 0.96 6.37 1.72l8.49 1.82q8.6 1.82 14.71 4.81 6.12 2.98 10.01 7 3.89 4.02 5.74 9.03 1.84 5 1.9 10.91-0.05 10.21-5.1 17.29-5.06 7.08-14.43 10.76-9.38 3.7-22.52 3.7c-8.77 0-16.85-1.33-23.53-4q-10.04-3.99-15.57-12.3-5.54-8.32-5.58-21.31h26.69q0.25 4.76 2.37 7.98 2.12 3.23 5.99 4.9 3.87 1.67 9.23 1.68 4.5 0 7.53-1.12 3.03-1.11 4.6-3.08 1.56-1.96 1.62-4.5-0.05-2.37-1.54-4.17-1.48-1.79-4.88-3.23-3.39-1.44-9.14-2.7l-10.32-2.23q-13.75-2.98-21.66-9.98-7.91-7.01-7.86-19.13-0.05-9.86 5.28-17.26 5.33-7.4 14.82-11.54 9.47-4.15 21.76-4.15c8.19 0 15.59 1.4 21.69 4.2q9.15 4.19 14.13 11.8 4.97 7.61 5.03 17.77h-26.9z"/>
			<path class="s2" d="m316.62 302.38v-22.66h89.98v22.66h-31.14v80.88h-27.7v-80.88z"/>
			<path class="s2" d="m512.55 331.5q0 17.29-6.72 29.14-6.73 11.86-18.15 17.95-11.42 6.1-25.48 6.1c-9.38 0-17.95-2.05-25.56-6.15q-11.39-6.14-18.1-18-6.69-11.85-6.69-29.04c0-11.47 2.23-21.24 6.69-29.14q6.7-11.86 18.1-17.95 11.41-6.1 25.56-6.1c9.43 0 17.86 2.03 25.48 6.1q11.42 6.09 18.15 17.95 6.72 11.85 6.72 29.14zm-28.91 0q-0.01-9.3-2.45-15.7-2.45-6.39-7.24-9.7-4.77-3.32-11.75-3.31-6.98-0.01-11.76 3.31-4.77 3.31-7.23 9.7-2.46 6.4-2.45 15.7 0 9.3 2.45 15.7 2.44 6.39 7.23 9.7 4.78 3.32 11.76 3.31 6.97 0.01 11.75-3.31 4.77-3.31 7.24-9.7 2.44-6.4 2.45-15.7z"/>
			<path class="s2" d="m525.49 383.26v-103.53h44.68q11.53 0.01 20.17 4.2 8.65 4.19 13.45 12.08 4.8 7.88 4.8 18.91c0 7.36-1.64 13.67-4.93 18.75q-4.93 7.64-13.8 11.53-8.87 3.89-20.7 3.89h-26.69v-21.84h21.03q4.95 0 8.46-1.24 3.51-1.24 5.41-3.97 1.9-2.73 1.91-7.13c0-2.93-0.64-5.38-1.91-7.25q-1.88-2.81-5.41-4.14-3.51-1.34-8.46-1.34h-9.91v81.08zm60.66-47.52l25.89 47.52h-30.54l-25.27-47.52z"/>
			<path fill-rule="evenodd" class="s2" d="m648.62 279.73v103.53h-28.1v-103.53z"/>
			<path class="s2" d="m661.97 383.26v-103.53h28.1v41.86h1.41l31.14-41.86h32.75l-34.97 46.11 35.78 57.43h-33.56l-23.25-38.82-9.31 12.13v26.7h-28.1z"/>
			<path class="s2" d="m790.57 383.26h-30.33l34.17-103.53h38.42l34.17 103.53h-30.33l-22.65-75.02h-0.81zm-5.66-40.84h57.02v21.03h-57.02z"/>
		</g>
	</g>
</svg>