<svg version="1.2" xmlns="http://www.w3.org/2000/svg" viewBox="0 0 485 276" width="485" height="276">
	<style>
		.s0 { fill: #233c7e } 
		.s1 { fill: #203e7a } 
		.s2 { fill: #f4821f } 
	</style>
	<g id="Layer1000">
		<path id="path1" fill-rule="evenodd" class="s0" d="m412.98 240.92v-54.53h21.51c17.06 0 28.94 10.87 28.94 27.31 0 16.43-11.85 27.22-28.94 27.22zm21.47-10.23q0.75 0.04 1.5 0.01c9.01-0.38 16-7.99 15.62-17q0.09-1.17 0-2.35c-0.65-8.78-8.3-15.38-17.09-14.74h-9.89v34.1h9.89zm-56.87 23.88l-18.46-33.04h-8.5v19.39h-11.61v-54.54h25.51q1-0.08 2-0.04c9.37 0.36 16.68 8.25 16.32 17.62 0.48 7.58-4.55 14.41-11.94 16.19l20.01 34.43zm-14.81-43.25q0.77 0.08 1.55 0c4.06-0.43 7.01-4.07 6.58-8.13-0.43-4.06-4.07-7.01-8.13-6.58h-12.15v14.71zm-63.48 29.59l-3.35-9.25h-23.39l-3.43 9.25h-13.25l21.1-54.54h14.55l21.01 54.54zm-15.04-42.93l-8.51 23.47h17.01zm-74.83 43.9c-15.58-0.47-27.83-13.47-27.37-29.05 0.47-15.58 13.48-27.83 29.05-27.37 9.53-0.27 18.38 4.9 22.81 13.33l-10 4.91c-2.51-4.79-7.43-7.84-12.84-7.93-9.2 0.45-16.56 7.81-17.02 17.02-0.49 9.89 7.13 18.3 17.02 18.79 5.42-0.06 10.36-3.11 12.84-7.93l10 4.82c-4.44 8.44-13.27 13.64-22.81 13.42q-0.84 0.01-1.68-0.01zm-95.34-1.02v-9.38l25.76-34.91h-25.76v-10.22h40.97v9.32l-25.76 35.02h26.32v10.21zm-54.78 1.05c-16.61 0-24.62-9.33-24.62-22.73v-32.81h11.78v32.38c0 7.07 5.73 12.8 12.8 12.8 7.06 0 12.79-5.73 12.79-12.8v-32.38h11.88v32.71c0 13.57-8.01 22.81-24.61 22.81z"/>
		<path id="path2" fill-rule="evenodd" class="s0" d="m477.53 185.35v0.13c0.01 5.61-4.54 10.16-10.15 10.17-5.6 0-10.15-4.54-10.16-10.15 0-5.61 4.54-10.16 10.15-10.16h0.01 10.15z"/>
	</g>
	<g id="Layer1001">
		<path id="path3" fill-rule="evenodd" class="s1" d="m306.52 100.82c0 23.17-5.29 40.43-15.87 51.68-10.58 11.25-26.93 16.87-48.97 16.87q-30.88 0-46.86-16.87-15.98-16.87-15.98-50.89v-76.09c0.01-1.78 1.45-3.23 3.23-3.23h37.34c1.78 0 3.23 1.45 3.23 3.23v77.75c0 9.26 1.71 16.39 5.2 21.42 6.28 8.32 18.11 9.98 26.43 3.7q1.88-1.42 3.36-3.25 5.11-7.08 5.09-20.86v-14.56h43.8z"/>
		<path id="path4" fill-rule="evenodd" class="s1" d="m303.14 81.21h-40.42v-55.54c0.01-1.87 1.52-3.38 3.39-3.38h6.05c0.01 18.96 15.39 34.33 34.35 34.33h0.01v24.59z"/>
		<path id="path5" fill-rule="evenodd" class="s2" d="m280.77 22.29h22.37c1.86 0 3.38 1.51 3.38 3.38v22.4c-14.22 0-25.75-11.53-25.75-25.76z"/>
	</g>
</svg>