<?xml version="1.0" encoding="UTF-8"?>
<svg id="Layer_2" data-name="Layer 2" xmlns="http://www.w3.org/2000/svg" viewBox="0 0 881.12 384.23">
  <g id="_06" data-name="06">
    <g>
      <path d="m156.81,329.89h-30.31l34.15-103.47h38.4l34.15,103.47h-30.31l-22.63-74.98h-.81l-22.64,74.98Zm-5.66-40.82h56.99v21.02h-56.99v-21.02Z"/>
      <path d="m294.84,258.75c-.27-3.37-1.52-5.99-3.76-7.88-2.24-1.89-5.63-2.83-10.18-2.83-2.9,0-5.26.35-7.1,1.04-1.84.69-3.19,1.63-4.07,2.8-.88,1.18-1.33,2.53-1.36,4.04-.07,1.25.16,2.37.68,3.36.52.99,1.36,1.89,2.5,2.68,1.14.79,2.61,1.51,4.4,2.15s3.91,1.21,6.37,1.72l8.49,1.82c5.73,1.21,10.63,2.81,14.7,4.8,4.08,1.99,7.41,4.32,10,7,2.59,2.68,4.51,5.68,5.74,9.02s1.86,6.97,1.9,10.91c-.03,6.8-1.73,12.56-5.1,17.28-3.37,4.72-8.18,8.3-14.42,10.76-6.25,2.46-13.75,3.69-22.51,3.69s-16.84-1.33-23.52-3.99c-6.69-2.66-11.87-6.76-15.56-12.3-3.69-5.54-5.55-12.64-5.58-21.3h26.68c.17,3.17.96,5.83,2.37,7.98s3.41,3.79,5.99,4.9c2.58,1.11,5.65,1.67,9.22,1.67,3,0,5.51-.37,7.53-1.11s3.55-1.77,4.6-3.08c1.04-1.31,1.58-2.81,1.62-4.5-.03-1.58-.55-2.97-1.54-4.17-.99-1.19-2.62-2.27-4.88-3.23-2.26-.96-5.3-1.86-9.14-2.7l-10.31-2.22c-9.16-1.99-16.38-5.31-21.65-9.98-5.27-4.67-7.89-11.04-7.86-19.12-.03-6.57,1.73-12.32,5.28-17.25,3.55-4.93,8.49-8.78,14.81-11.54,6.31-2.76,13.56-4.14,21.75-4.14s15.58,1.4,21.68,4.19c6.1,2.8,10.8,6.73,14.12,11.8,3.32,5.07,4.99,10.99,5.03,17.76h-26.88Z"/>
      <path d="m331.02,249.05v-22.64h89.93v22.64h-31.12v80.84h-27.69v-80.84h-31.12Z"/>
      <path d="m526.85,278.16c0,11.52-2.24,21.23-6.72,29.13-4.48,7.9-10.53,13.88-18.14,17.94-7.61,4.06-16.1,6.09-25.47,6.09s-17.94-2.05-25.54-6.14c-7.6-4.09-13.62-10.09-18.09-17.99-4.46-7.9-6.69-17.57-6.69-29.03s2.23-21.23,6.69-29.13c4.46-7.9,10.49-13.88,18.09-17.94,7.6-4.06,16.11-6.09,25.54-6.09s17.85,2.03,25.47,6.09c7.61,4.06,13.66,10.04,18.14,17.94,4.48,7.9,6.72,17.61,6.72,29.13Zm-28.9,0c0-6.2-.82-11.43-2.45-15.69-1.63-4.26-4.04-7.49-7.23-9.7-3.18-2.21-7.1-3.31-11.75-3.31s-8.56,1.1-11.75,3.31c-3.18,2.21-5.59,5.44-7.23,9.7-1.63,4.26-2.45,9.49-2.45,15.69s.82,11.43,2.45,15.69c1.63,4.26,4.04,7.49,7.23,9.7,3.18,2.21,7.1,3.31,11.75,3.31s8.56-1.1,11.75-3.31c3.18-2.21,5.59-5.44,7.23-9.7,1.63-4.26,2.45-9.49,2.45-15.69Z"/>
      <path d="m539.78,329.89v-103.47h44.66c7.68,0,14.4,1.4,20.16,4.19,5.76,2.8,10.24,6.82,13.44,12.08,3.2,5.25,4.8,11.55,4.8,18.9s-1.64,13.66-4.93,18.74c-3.28,5.09-7.88,8.93-13.79,11.52-5.91,2.59-12.81,3.89-20.69,3.89h-26.68v-21.83h21.02c3.3,0,6.12-.41,8.46-1.24,2.34-.82,4.14-2.15,5.41-3.97,1.26-1.82,1.9-4.19,1.9-7.12s-.63-5.38-1.9-7.25c-1.26-1.87-3.06-3.25-5.41-4.14-2.34-.89-5.16-1.34-8.46-1.34h-9.9v81.04h-28.09Zm60.63-47.49l25.87,47.49h-30.52l-25.26-47.49h29.91Z"/>
      <path d="m662.85,226.42v103.47h-28.09v-103.47h28.09Z"/>
      <path d="m676.19,329.89v-103.47h28.09v41.83h1.41l31.12-41.83h32.74l-34.96,46.08,35.77,57.4h-33.55l-23.24-38.8-9.3,12.13v26.68h-28.09Z"/>
      <path d="m804.73,329.89h-30.32l34.16-103.47h38.4l34.15,103.47h-30.31l-22.64-74.98h-.81l-22.63,74.98Zm-5.66-40.82h56.99v21.02h-56.99v-21.02Z"/>
      <path d="m182.52,377.23v-26.18h9.59c1.86,0,3.4.3,4.62.91s2.13,1.43,2.74,2.47c.6,1.04.91,2.2.91,3.5,0,1.09-.2,2.01-.6,2.76-.4.75-.94,1.34-1.6,1.79s-1.4.77-2.21.98v.26c.87.04,1.72.32,2.55.84s1.52,1.25,2.06,2.19c.54.95.82,2.1.82,3.45s-.31,2.54-.94,3.6c-.63,1.06-1.59,1.9-2.9,2.52-1.3.62-2.97.93-5,.93h-10.04Zm3.95-14.86h5.29c.89,0,1.69-.17,2.4-.51.71-.34,1.28-.82,1.7-1.44s.63-1.35.63-2.19c0-1.08-.38-1.99-1.14-2.72-.76-.73-1.92-1.1-3.49-1.1h-5.4v7.96Zm0,11.47h5.7c1.89,0,3.25-.37,4.07-1.1s1.23-1.65,1.23-2.75c0-.83-.21-1.58-.63-2.28-.42-.69-1.01-1.24-1.78-1.65s-1.69-.61-2.74-.61h-5.84v8.39Z"/>
      <path d="m230.11,351.04h3.96v17.22c0,1.83-.43,3.45-1.29,4.86-.86,1.41-2.07,2.52-3.63,3.32-1.56.8-3.39,1.21-5.48,1.21s-3.91-.4-5.47-1.21c-1.56-.81-2.77-1.91-3.63-3.32-.86-1.41-1.29-3.03-1.29-4.86v-17.22h3.95v16.9c0,1.18.26,2.24.79,3.16.52.92,1.27,1.64,2.23,2.17.96.52,2.1.79,3.43.79s2.48-.26,3.45-.79,1.71-1.25,2.22-2.17c.52-.92.77-1.97.77-3.16v-16.9Z"/>
      <path d="m250.97,351.04v26.18h-3.95v-26.18h3.95Z"/>
      <path d="m263.92,377.23v-26.18h3.95v22.78h11.86v3.4h-15.81Z"/>
      <path d="m286.75,354.44v-3.4h20.26v3.4h-8.17v22.78h-3.94v-22.78h-8.16Z"/>
      <path d="m335.41,377.23v-26.18h16.24v3.4h-12.29v7.98h11.12v3.39h-11.12v11.42h-3.95Z"/>
      <path d="m386.44,364.14c0,2.79-.51,5.2-1.53,7.2-1.02,2.01-2.42,3.55-4.2,4.63s-3.79,1.62-6.05,1.62-4.29-.54-6.07-1.62c-1.78-1.08-3.18-2.62-4.2-4.63-1.02-2.01-1.53-4.41-1.53-7.2s.51-5.2,1.53-7.2c1.02-2.01,2.42-3.55,4.2-4.63,1.78-1.08,3.8-1.62,6.07-1.62s4.28.54,6.05,1.62,3.18,2.62,4.2,4.63c1.02,2.01,1.53,4.41,1.53,7.2Zm-3.91,0c0-2.13-.34-3.93-1.03-5.39s-1.62-2.57-2.81-3.32c-1.19-.75-2.53-1.13-4.03-1.13s-2.86.38-4.04,1.13c-1.18.75-2.12,1.86-2.81,3.32s-1.03,3.26-1.03,5.39.34,3.93,1.03,5.39c.69,1.46,1.62,2.57,2.81,3.32s2.53,1.13,4.04,1.13,2.84-.38,4.03-1.13,2.13-1.86,2.81-3.32c.69-1.46,1.03-3.26,1.03-5.39Z"/>
      <path d="m398.55,377.23v-26.18h9.33c2.03,0,3.71.35,5.06,1.05,1.34.7,2.35,1.66,3.01,2.9.67,1.23,1,2.65,1,4.26s-.33,3.01-1,4.22c-.67,1.21-1.67,2.16-3.02,2.83-1.34.67-3.03,1.01-5.06,1.01h-7.07v-3.4h6.71c1.28,0,2.32-.18,3.13-.55.81-.37,1.4-.9,1.77-1.6s.56-1.54.56-2.52-.19-1.84-.57-2.57c-.38-.72-.97-1.28-1.78-1.67-.81-.39-1.86-.58-3.16-.58h-4.96v22.79h-3.95Zm12.92-11.81l6.47,11.81h-4.5l-6.34-11.81h4.37Z"/>
      <path d="m579.36,354.44v-3.4h20.26v3.4h-8.17v22.78h-3.94v-22.78h-8.16Z"/>
      <path d="m611.29,377.23v-26.18h9.33c2.03,0,3.71.35,5.06,1.05,1.34.7,2.35,1.66,3.01,2.9s1,2.65,1,4.26-.33,3.01-1,4.22c-.67,1.21-1.67,2.16-3.02,2.83-1.34.67-3.03,1.01-5.06,1.01h-7.07v-3.4h6.71c1.28,0,2.32-.18,3.13-.55.81-.37,1.4-.9,1.77-1.6s.56-1.54.56-2.52-.19-1.84-.57-2.57c-.38-.72-.97-1.28-1.78-1.67-.81-.39-1.86-.58-3.16-.58h-4.96v22.79h-3.95Zm12.92-11.81l6.47,11.81h-4.5l-6.34-11.81h4.37Z"/>
      <path d="m643.91,377.23h-4.19l9.42-26.18h4.56l9.42,26.18h-4.19l-7.4-21.43h-.2l-7.42,21.43Zm.7-10.25h13.6v3.32h-13.6v-3.32Z"/>
      <path d="m695.23,351.04v26.18h-3.63l-13.31-19.2h-.24v19.2h-3.95v-26.18h3.66l13.32,19.23h.24v-19.23h3.91Z"/>
      <path d="m722.46,357.92c-.14-1.21-.7-2.15-1.69-2.82s-2.23-1-3.73-1c-1.07,0-2,.17-2.79.5-.78.34-1.39.8-1.82,1.38-.43.58-.65,1.25-.65,1.99,0,.62.15,1.16.44,1.61.29.45.68.83,1.16,1.13s1,.55,1.55.75c.55.2,1.09.36,1.6.49l2.56.67c.83.2,1.69.48,2.57.83s1.69.81,2.44,1.38c.75.57,1.36,1.28,1.82,2.12s.7,1.85.7,3.03c0,1.48-.38,2.8-1.14,3.95-.76,1.15-1.87,2.06-3.31,2.72-1.44.66-3.19,1-5.23,1s-3.66-.31-5.09-.93c-1.43-.62-2.55-1.51-3.36-2.65-.81-1.15-1.26-2.51-1.34-4.08h3.96c.08.95.39,1.73.93,2.36.54.63,1.24,1.09,2.08,1.39.85.3,1.78.45,2.79.45,1.12,0,2.11-.18,2.98-.53.87-.35,1.56-.85,2.06-1.48.5-.63.75-1.38.75-2.23,0-.78-.22-1.41-.66-1.91-.44-.49-1.03-.9-1.78-1.23s-1.59-.61-2.52-.86l-3.09-.84c-2.1-.57-3.76-1.41-4.98-2.52-1.22-1.11-1.83-2.57-1.83-4.4,0-1.51.41-2.83,1.23-3.95s1.93-2,3.32-2.63c1.4-.63,2.97-.94,4.73-.94s3.34.31,4.7.93,2.43,1.48,3.21,2.56c.78,1.09,1.19,2.33,1.23,3.74h-3.81Z"/>
      <path d="m738.55,377.23v-26.18h16.24v3.4h-12.29v7.98h11.12v3.39h-11.12v11.42h-3.95Z"/>
      <path d="m766.84,377.23v-26.18h16.42v3.4h-12.46v7.98h11.61v3.39h-11.61v8.02h12.62v3.4h-16.57Z"/>
      <path d="m795.75,377.23v-26.18h9.33c2.03,0,3.71.35,5.06,1.05,1.34.7,2.35,1.66,3.01,2.9s1,2.65,1,4.26-.33,3.01-1,4.22c-.67,1.21-1.67,2.16-3.02,2.83-1.34.67-3.03,1.01-5.06,1.01h-7.07v-3.4h6.71c1.28,0,2.32-.18,3.13-.55.81-.37,1.4-.9,1.77-1.6s.56-1.54.56-2.52-.19-1.84-.57-2.57c-.38-.72-.97-1.28-1.78-1.67-.81-.39-1.86-.58-3.16-.58h-4.96v22.79h-3.95Zm12.92-11.81l6.47,11.81h-4.5l-6.34-11.81h4.37Z"/>
      <g>
        <path d="m70.26,53.79C78.49,15.92,97.7,0,135.58,0h92.21c-4.94,27.44-24.15,42.26-47.2,42.26h-31.29l-26.71,126.35-34.21,161.82c-8.23,37.87-27.44,53.79-65.32,53.79H0L70.26,53.79Z"/>
        <path d="m110.66,225.3l-13.52,63.8L14.69,211.77c-1.22-1.12-2.2-2.44-2.92-3.86-1.04-2.02-1.59-4.27-1.6-6.55v-.03c.02-.91.11-1.82.29-2.72l10.01-49.9c.19-.93.61-1.74,1.2-2.4.67-.76,1.58-1.32,2.59-1.57l57.39,53.52,3.17,2.96,25.83,24.08Z"/>
        <path d="m144.34,219.01l4.87-24.31-64.38,6.53-3.84.38-66.76,6.78c-.9.09-1.75-.09-2.45-.48-1.06-2.02-1.6-4.27-1.61-6.54v-.03c0-.93.11-1.83.3-2.72l10-49.9c.19-.94.6-1.75,1.21-2.41.66-.76,1.57-1.33,2.59-1.56.21-.06.45-.11.7-.13l137.05-13.9,5.06-25.29,45.43,68.16-68.16,45.43Z"/>
        <path d="m445.71,377.23v-26.18h16.24v3.4h-12.29v7.98h11.12v3.39h-11.12v11.42h-3.95Z"/>
        <path d="m472.94,377.23h-4.19l9.42-26.18h4.56l9.42,26.18h-4.19l-7.4-21.43h-.2l-7.42,21.43Zm.7-10.25h13.6v3.32h-13.6v-3.32Z"/>
        <path d="m517.2,357.92c-.14-1.21-.7-2.15-1.69-2.82-.99-.67-2.23-1-3.73-1-1.07,0-2,.17-2.79.5-.78.34-1.39.8-1.82,1.38-.43.58-.65,1.25-.65,1.99,0,.62.15,1.16.44,1.61.29.45.68.83,1.16,1.13s1,.55,1.55.75c.55.2,1.09.36,1.6.49l2.56.67c.83.2,1.69.48,2.57.83s1.69.81,2.44,1.38c.75.57,1.36,1.28,1.82,2.12s.7,1.85.7,3.03c0,1.48-.38,2.8-1.14,3.95-.76,1.15-1.87,2.06-3.31,2.72-1.44.66-3.19,1-5.24,1s-3.66-.31-5.09-.93-2.55-1.51-3.36-2.65-1.26-2.51-1.34-4.08h3.96c.08.95.39,1.73.93,2.36.54.63,1.24,1.09,2.08,1.39.85.3,1.78.45,2.79.45,1.12,0,2.11-.18,2.99-.53s1.56-.85,2.06-1.48c.5-.63.75-1.38.75-2.23,0-.78-.22-1.41-.66-1.91-.44-.49-1.03-.9-1.78-1.23-.75-.32-1.59-.61-2.53-.86l-3.09-.84c-2.1-.57-3.76-1.41-4.98-2.52-1.22-1.11-1.83-2.57-1.83-4.4,0-1.51.41-2.83,1.23-3.95.82-1.12,1.93-2,3.32-2.63,1.4-.63,2.97-.94,4.73-.94s3.34.31,4.7.93,2.43,1.48,3.21,2.56c.78,1.09,1.19,2.33,1.23,3.74h-3.81Z"/>
        <path d="m531.99,354.44v-3.4h20.26v3.4h-8.17v22.78h-3.94v-22.78h-8.16Z"/>
      </g>
    </g>
  </g>
</svg>