<?xml version="1.0" encoding="UTF-8"?>
<svg id="Layer_2" data-name="Layer 2" xmlns="http://www.w3.org/2000/svg" viewBox="0 0 912.22 912.22">
  <defs>
    <style>
      .cls-1 {
        fill: #fff;
      }

      .cls-2 {
        fill: #00d796;
      }

      .cls-3 {
        fill: #f1f2f4;
      }
    </style>
  </defs>
  <g id="_04" data-name="04">
    <rect class="cls-2" width="912.22" height="912.22" rx="140.67" ry="140.67"/>
    <g>
      <path class="cls-1" d="m370.93,196.11c16.07-73.93,53.57-105,127.5-105h180c-9.64,53.57-47.14,82.5-92.14,82.5h-61.07l-52.15,246.64-66.78,315.86c-16.07,73.93-53.57,105-127.5,105h-45L370.93,196.11Z"/>
      <path class="cls-3" d="m449.79,530.89l-26.4,124.54-160.93-150.95c-2.39-2.2-4.3-4.77-5.69-7.54-2.04-3.94-3.11-8.33-3.13-12.78v-.06c.03-1.78.22-3.56.57-5.31l19.53-97.41c.36-1.81,1.19-3.4,2.35-4.68,1.31-1.49,3.08-2.58,5.06-3.06l112.02,104.47,6.18,5.78,50.43,47Z"/>
      <path class="cls-1" d="m515.53,518.61l9.5-47.46-125.67,12.74-7.49.74-130.31,13.23c-1.76.18-3.41-.18-4.79-.94-2.07-3.93-3.12-8.34-3.14-12.76v-.05c.02-1.81.22-3.57.58-5.31l19.53-97.41c.36-1.83,1.18-3.41,2.36-4.7,1.29-1.49,3.06-2.59,5.06-3.05.42-.13.87-.22,1.36-.25l267.51-27.14,9.88-49.37,88.67,133.05-133.05,88.67Z"/>
    </g>
  </g>
</svg>