<?xml version="1.0" encoding="UTF-8"?>
<svg id="Layer_2" data-name="Layer 2" xmlns="http://www.w3.org/2000/svg" viewBox="0 0 227.79 384.23">
  <defs>
    <style>
      .cls-1 {
        fill: #096;
      }

      .cls-2 {
        fill: #00d796;
      }
    </style>
  </defs>
  <g id="_01" data-name="01">
    <g>
      <path class="cls-2" d="m70.26,53.79C78.49,15.92,97.7,0,135.58,0h92.21c-4.94,27.44-24.15,42.26-47.2,42.26h-31.29l-26.71,126.35-34.21,161.82c-8.23,37.87-27.44,53.79-65.32,53.79H0L70.26,53.79Z"/>
      <path class="cls-1" d="m110.66,225.3l-13.52,63.8L14.69,211.77c-1.22-1.12-2.2-2.44-2.92-3.86-1.04-2.02-1.59-4.27-1.6-6.55v-.03c.02-.91.11-1.82.29-2.72l10.01-49.9c.19-.93.61-1.74,1.2-2.4.67-.76,1.58-1.32,2.59-1.57l57.39,53.52,3.17,2.96,25.83,24.08Z"/>
      <path class="cls-2" d="m144.34,219.01l4.87-24.31-64.38,6.53-3.84.38-66.76,6.78c-.9.09-1.75-.09-2.45-.48-1.06-2.02-1.6-4.27-1.61-6.54v-.03c0-.93.11-1.83.3-2.72l10-49.9c.19-.94.6-1.75,1.21-2.41.66-.76,1.57-1.33,2.59-1.56.21-.06.45-.11.7-.13l137.05-13.9,5.06-25.29,45.43,68.16-68.16,45.43Z"/>
    </g>
  </g>
</svg>